<svg xmlns="http://www.w3.org/2000/svg" version="1.1"
    xmlns:xlink="http://www.w3.org/1999/xlink"
    xmlns:svgjs="http://svgjs.dev/svgjs" viewBox="0 0 800 800" opacity="1" width="40" height="40">
    <g stroke-width="5.750000000000001" stroke="#9c1717ff" fill="none">
        <rect width="200" height="14.263157894736842" x="-100" y="-7.131578947368421" stroke="none" fill="#9c1717ff" rx="7.131578947368421"></rect>
        <rect width="14.263157894736842" height="200" x="-7.131578947368421" y="-100" stroke="none" fill="#9c1717ff" rx="7.131578947368421"></rect>
        <rect width="200" height="14.263157894736842" x="300" y="-7.131578947368421" stroke="none" fill="#9c1717ff" rx="7.131578947368421"></rect>
        <rect width="14.263157894736842" height="200" x="392.86842105263156" y="-100" stroke="none" fill="#9c1717ff" rx="7.131578947368421"></rect>
        <rect width="200" height="14.263157894736842" x="700" y="-7.131578947368421" stroke="none" fill="#9c1717ff" rx="7.131578947368421"></rect>
        <rect width="14.263157894736842" height="200" x="792.8684210526316" y="-100" stroke="none" fill="#9c1717ff" rx="7.131578947368421"></rect>
        <rect width="200" height="14.263157894736842" x="-100" y="392.86842105263156" stroke="none" fill="#9c1717ff" rx="7.131578947368421"></rect>
        <rect width="14.263157894736842" height="200" x="-7.131578947368421" y="300" stroke="none" fill="#9c1717ff" rx="7.131578947368421"></rect>
        <rect width="200" height="14.263157894736842" x="300" y="392.86842105263156" stroke="none" fill="#9c1717ff" rx="7.131578947368421"></rect>
        <rect width="14.263157894736842" height="200" x="392.86842105263156" y="300" stroke="none" fill="#9c1717ff" rx="7.131578947368421"></rect>
        <rect width="200" height="14.263157894736842" x="700" y="392.86842105263156" stroke="none" fill="#9c1717ff" rx="7.131578947368421"></rect>
        <rect width="14.263157894736842" height="200" x="792.8684210526316" y="300" stroke="none" fill="#9c1717ff" rx="7.131578947368421"></rect>
        <rect width="200" height="14.263157894736842" x="-100" y="792.8684210526316" stroke="none" fill="#9c1717ff" rx="7.131578947368421"></rect>
        <rect width="14.263157894736842" height="200" x="-7.131578947368421" y="700" stroke="none" fill="#9c1717ff" rx="7.131578947368421"></rect>
        <rect width="200" height="14.263157894736842" x="300" y="792.8684210526316" stroke="none" fill="#9c1717ff" rx="7.131578947368421"></rect>
        <rect width="14.263157894736842" height="200" x="392.86842105263156" y="700" stroke="none" fill="#9c1717ff" rx="7.131578947368421"></rect>
        <rect width="200" height="14.263157894736842" x="700" y="792.8684210526316" stroke="none" fill="#9c1717ff" rx="7.131578947368421"></rect>
        <rect width="14.263157894736842" height="200" x="792.8684210526316" y="700" stroke="none" fill="#9c1717ff" rx="7.131578947368421"></rect>
    </g>
</svg>